<svg width="150" height="20" viewBox="0 0 150 20" fill="none" xmlns="http://www.w3.org/2000/svg">
<g opacity="0.4">
<path d="M2.06461 16.584C2.06461 15.431 3.02614 14.5109 4.17796 14.5616L11.5518 14.8863C12.2438 14.9168 12.8071 15.4533 12.8712 16.143C12.9402 16.8861 12.4086 17.5505 11.6684 17.6461L4.34822 18.5916C3.13734 18.748 2.06461 17.8049 2.06461 16.584Z" fill="#1D4256"/>
<path d="M0 9.99691C0 8.82098 0.960779 7.87168 2.13663 7.88582L16.7153 8.0611C17.4898 8.07042 18.1221 8.68308 18.1558 9.45685C18.19 10.2429 17.595 10.9145 16.8106 10.9753L2.27437 12.1018C1.04775 12.1969 0 11.2272 0 9.99691Z" fill="#1D4256"/>
<path d="M2.06461 3.47256C2.06461 2.31733 3.03385 1.39859 4.18743 1.46034L11.1906 1.8352C11.7418 1.86471 12.2219 2.22089 12.4101 2.73984C12.7101 3.56742 12.1663 4.45992 11.2932 4.57269L4.33785 5.47106C3.13247 5.62675 2.06461 4.68796 2.06461 3.47256Z" fill="#1D4256"/>
<path d="M25.0425 0V19.5251H28.4224V0H25.0425Z" fill="#1D4256"/>
<path d="M45.0575 13.8547C45.5883 8.18436 42.7112 5.3352 38.1022 5.3352C33.633 5.3352 30.7838 8.35196 30.7838 12.5419C30.7838 16.9553 33.605 19.8883 38.3536 19.8883C40.4486 19.8883 42.8229 19.162 44.2754 17.6536L42.0966 15.5028C41.3145 16.3128 39.6665 16.7877 38.4095 16.7877C36.0073 16.7877 34.5268 15.5587 34.3033 13.8547H45.0575ZM34.3592 11.0335C34.862 9.24581 36.3704 8.35196 38.214 8.35196C40.1693 8.35196 41.5659 9.24581 41.7894 11.0335H34.3592Z" fill="#1D4256"/>
<path d="M61.2309 19.5251V12.2905C61.2309 7.96089 58.6332 5.53073 55.393 5.53073C53.6611 5.53073 52.2645 6.22905 50.8678 7.59777L50.6443 5.72626H47.5997V19.5251H50.9795V12.486C50.9795 10.3911 52.4041 8.63129 54.4991 8.63129C56.6779 8.63129 57.8231 10.2235 57.8231 12.3184V19.5251H61.2309Z" fill="#1D4256"/>
<path d="M70.8355 8.60335C72.9864 8.60335 74.8299 10.2235 74.8299 12.6257C74.8299 15.1117 72.9864 16.676 70.8355 16.676C68.6567 16.676 66.9249 15.0279 66.9249 12.6257C66.9249 10.1397 68.6567 8.60335 70.8355 8.60335ZM75.0534 0V7.6257C74.2433 6.20112 71.9808 5.419 70.5283 5.419C66.5059 5.419 63.5171 7.8771 63.5171 12.6257C63.5171 17.1508 66.5618 19.8324 70.612 19.8324C72.288 19.8324 73.9919 19.2737 75.0534 17.6257L75.2769 19.5251H78.4612V0H75.0534Z" fill="#1D4256"/>
<path d="M92.3205 7.17877C90.7284 5.78212 89.1083 5.36313 86.9574 5.36313C84.4434 5.36313 81.1474 6.48045 81.1474 9.66481C81.1474 12.7933 84.2479 13.743 86.8457 13.9385C88.801 14.0503 89.5831 14.4413 89.5831 15.3911C89.5831 16.3966 88.382 17.067 87.0971 17.0391C85.5608 17.0112 83.3261 16.2011 82.3485 15.1117L80.6725 17.5419C82.6837 19.6369 84.8624 20 87.0412 20C90.9798 20 92.963 17.905 92.963 15.4749C92.963 11.8156 89.6669 11.2291 87.0691 11.0615C85.3094 10.9497 84.4993 10.4469 84.4993 9.55307C84.4993 8.68715 85.3932 8.18436 87.0133 8.18436C88.3261 8.18436 89.4435 8.49162 90.4211 9.41341L92.3205 7.17877Z" fill="#1D4256"/>
<path d="M96.5443 2.23464V5.78212H93.9745V8.71509H96.5443V14.6648C96.5443 18.1006 98.4996 19.8045 101.488 19.6927C102.522 19.6648 103.332 19.4972 104.31 19.1061L103.36 16.2011C102.857 16.4525 102.243 16.6201 101.712 16.6201C100.65 16.6201 99.9242 15.9777 99.9242 14.6648V8.71509H103.751V5.78212H99.9521V1.87151L96.5443 2.23464Z" fill="#1D4256"/>
<path d="M117.115 7.65363C116.332 6.28492 114.573 5.419 112.729 5.419C108.707 5.39106 105.55 7.8771 105.55 12.6257C105.55 17.4581 108.567 19.9721 112.645 19.9441C114.182 19.9162 116.332 19.1341 117.115 17.514L117.282 19.5251H120.494V5.75419H117.226L117.115 7.65363ZM113.036 8.46369C118.399 8.46369 118.399 16.8156 113.036 16.8156C110.774 16.8156 108.958 15.2514 108.958 12.6257C108.958 10 110.774 8.46369 113.036 8.46369Z" fill="#1D4256"/>
<path d="M133.206 15.5307C132.368 16.3687 131.279 16.676 130.189 16.676C128.066 16.676 126.279 15.2793 126.279 12.6536C126.279 10.2514 127.954 8.57542 130.245 8.57542C131.195 8.57542 132.2 8.93855 133.01 9.66481L135.161 7.40224C133.653 5.92179 132.144 5.36313 130.189 5.36313C126.195 5.36313 122.871 7.76536 122.871 12.6536C122.871 17.5419 126.195 19.9441 130.189 19.9441C132.228 19.9441 133.904 19.3296 135.496 17.7654L133.206 15.5307Z" fill="#1D4256"/>
<path d="M136.909 0V19.5251H140.317V13.2961L145.708 19.5251H149.814V19.2737L143.417 12.2346L149.032 5.94972V5.75419H144.953L140.317 11.2849V0H136.909Z" fill="#1D4256"/>
</g>
</svg>
