<svg width="225" height="37" viewBox="0 0 225 37" fill="none" xmlns="http://www.w3.org/2000/svg">
<path d="M48.0542 17.4039V12.202H50.803C52.8128 12.202 53.67 13.2069 53.67 14.803C53.67 16.399 52.8128 17.4039 50.803 17.4039H48.0542ZM58.8128 14.803C58.8128 10.9901 56.2709 8.12315 51.1872 8.12315H43V28.8719H48.0542V21.4236H51.1872C56.4778 21.4236 58.8128 18.2315 58.8128 14.803Z" fill="white"/>
<path d="M65.0204 21.2167C65.0204 18.3793 66.4096 17.5517 68.8036 17.5517H70.1928V12.202C67.9761 12.202 66.1731 13.3842 65.0204 15.1281V12.3793H59.9662V28.8719H65.0204V21.2167Z" fill="white"/>
<path d="M87.2687 20.6256C87.2687 15.3941 83.5446 12.1429 78.6973 12.1429C73.8795 12.1429 70.1258 15.3941 70.1258 20.6256C70.1258 25.8571 73.7909 29.1084 78.6382 29.1084C83.4855 29.1084 87.2687 25.8571 87.2687 20.6256ZM75.2687 20.6256C75.2687 17.8177 76.8648 16.5172 78.6973 16.5172C80.4707 16.5172 82.1258 17.8177 82.1258 20.6256C82.1258 23.4039 80.4411 24.734 78.6382 24.734C76.8056 24.734 75.2687 23.4039 75.2687 20.6256Z" fill="white"/>
<path d="M87.4673 20.5961C87.4673 25.798 90.689 29.1084 94.7382 29.1084C97.1619 29.1084 98.9057 28.0148 99.822 26.5074V28.8719H104.876V7H99.822V14.6552C98.817 13.1478 96.9254 12.1429 94.7382 12.1429C90.689 12.1429 87.4673 15.3941 87.4673 20.5961ZM99.822 20.6256C99.822 23.2562 98.1372 24.7044 96.2161 24.7044C94.3244 24.7044 92.6101 23.2266 92.6101 20.5961C92.6101 17.9655 94.3244 16.5468 96.2161 16.5468C98.1372 16.5468 99.822 17.9951 99.822 20.6256Z" fill="white"/>
<path d="M123.341 12.3793H118.286V21.335C118.286 23.5813 117.045 24.8227 115.094 24.8227C113.203 24.8227 111.932 23.5813 111.932 21.335V12.3793H106.907V22.0148C106.907 26.4187 109.478 29.0493 113.291 29.0493C115.508 29.0493 117.281 28.0443 118.286 26.6256V28.8719H123.341V12.3793Z" fill="white"/>
<path d="M124.488 20.6552C124.488 25.6798 127.917 29.0788 131.966 29.0788C134.153 29.0788 135.779 28.1034 136.843 26.803V36.734H141.897V12.3793H136.843V14.2709C135.838 13.0296 134.183 12.202 132.025 12.202C127.917 12.202 124.488 15.6305 124.488 20.6552ZM136.843 20.6256C136.843 23.4039 134.951 24.7044 133.237 24.7044C131.552 24.7044 129.631 23.4335 129.631 20.6552C129.631 17.8768 131.552 16.5764 133.237 16.5764C134.951 16.5764 136.843 17.8473 136.843 20.6256Z" fill="white"/>
<path d="M144.874 23.1379C144.874 27.4236 147.268 28.8719 150.696 28.8719H153.268V24.5862H151.465C150.342 24.5862 149.928 24.1724 149.928 23.197V16.5764H153.238V12.3793H149.928V8.35961H144.874V12.3793H142.864V16.5764H144.874V23.1379Z" fill="white"/>
<path d="M161.876 16.1921C163.561 16.1921 164.98 17.2266 164.98 19.0296H158.654C158.95 17.197 160.221 16.1921 161.876 16.1921ZM169.768 23.4039H164.388C163.975 24.2906 163.177 25 161.758 25C160.132 25 158.802 23.9951 158.625 21.8374H170.063C170.122 21.335 170.152 20.8325 170.152 20.3596C170.152 15.335 166.753 12.1429 161.935 12.1429C157.029 12.1429 153.6 15.3941 153.6 20.6256C153.6 25.8571 157.088 29.1084 161.935 29.1084C166.044 29.1084 168.97 26.6256 169.768 23.4039Z" fill="white"/>
<path d="M170.336 20.5961C170.336 25.798 173.557 29.1084 177.607 29.1084C180.03 29.1084 181.774 28.0148 182.69 26.5074V28.8719H187.744V7H182.69V14.6552C181.685 13.1478 179.794 12.1429 177.607 12.1429C173.557 12.1429 170.336 15.3941 170.336 20.5961ZM182.69 20.6256C182.69 23.2562 181.006 24.7044 179.084 24.7044C177.193 24.7044 175.478 23.2266 175.478 20.5961C175.478 17.9655 177.193 16.5468 179.084 16.5468C181.006 16.5468 182.69 17.9951 182.69 20.6256Z" fill="white"/>
<path d="M188.918 20.5961C188.918 25.798 192.14 29.1084 196.189 29.1084C198.613 29.1084 200.357 27.9557 201.273 26.5074V28.8424C201.273 31.6207 199.765 32.6256 197.844 32.6256C196.1 32.6256 194.859 31.8276 194.534 30.5862H189.539C189.982 34.5172 193.174 37 198.081 37C203.785 37 206.327 33.2463 206.327 28.8424V12.3793H201.273V14.7143C200.386 13.2365 198.613 12.1429 196.189 12.1429C192.14 12.1429 188.918 15.3941 188.918 20.5961ZM201.273 20.6256C201.273 23.2562 199.588 24.7044 197.667 24.7044C195.775 24.7044 194.061 23.2266 194.061 20.5961C194.061 17.9655 195.775 16.5468 197.667 16.5468C199.588 16.5468 201.273 17.9951 201.273 20.6256Z" fill="white"/>
<path d="M215.777 16.1921C217.461 16.1921 218.88 17.2266 218.88 19.0296H212.555C212.851 17.197 214.121 16.1921 215.777 16.1921ZM223.668 23.4039H218.289C217.875 24.2906 217.077 25 215.658 25C214.033 25 212.703 23.9951 212.525 21.8374H223.964C224.023 21.335 224.052 20.8325 224.052 20.3596C224.052 15.335 220.653 12.1429 215.836 12.1429C210.929 12.1429 207.501 15.3941 207.501 20.6256C207.501 25.8571 210.988 29.1084 215.836 29.1084C219.944 29.1084 222.87 26.6256 223.668 23.4039Z" fill="white"/>
<path opacity="0.8" d="M0 4C0 1.79086 1.79086 0 4 0H18.1739C20.383 0 22.1739 1.79086 22.1739 4V18.1739C22.1739 20.383 20.3831 22.1739 18.1739 22.1739H4C1.79086 22.1739 0 20.3831 0 18.1739V4Z" fill="#F6B865"/>
<path d="M13.0435 11.8262C13.0435 9.61704 14.8343 7.82617 17.0435 7.82617H31.2174C33.4265 7.82617 35.2174 9.61703 35.2174 11.8262V26.0001C35.2174 28.2092 33.4265 30.0001 31.2174 30.0001H17.0435C14.8343 30.0001 13.0435 28.2092 13.0435 26.0001V11.8262Z" fill="#4E67DA"/>
</svg>
