<svg width="114" height="114" viewBox="0 0 114 114" fill="none" xmlns="http://www.w3.org/2000/svg">
<circle opacity="0.2" cx="57.1804" cy="56.7917" r="56.6696" fill="#88AFDD"/>
<path fill-rule="evenodd" clip-rule="evenodd" d="M64.9309 58.5699H79.6084V76.5738H37.6709V58.5699H52.3601V56.3762H35.6465V76.1759C35.6465 78.6509 37.9431 78.6509 37.9431 78.6509H79.2821C79.2821 78.6509 81.5787 78.6509 81.5787 76.1759V56.3762H64.9309V58.5699ZM79.4909 45.2388H37.7343V54.1487H35.6465V45.5425C35.6465 43.0113 37.9431 43.0113 37.9431 43.0113H79.2821C79.2821 43.0113 81.5787 43.0113 81.5787 45.5425V54.1487H79.4909V45.2388ZM62.9019 38.5101H54.4599V43.0113H52.3491V39.1132C52.3491 36.3289 54.7582 36.3289 54.7582 36.3289H62.467C62.467 36.3289 64.8761 36.3289 64.8761 39.1132V43.0113H62.9019V38.5101ZM54.4369 58.5828C54.4369 59.8245 55.3626 60.8311 56.5444 60.8311H60.6808C61.8447 60.8311 62.7882 59.8436 62.7882 58.5828V54.1695C62.7882 52.9278 61.8625 51.9212 60.6808 51.9212H56.5444C55.3805 51.9212 54.4369 52.9088 54.4369 54.1695V58.5828ZM56.5248 54.1487V58.6036H60.7004V54.1487H56.5248Z" fill="#88AFDD"/>
</svg>
