<svg width="100" height="100" viewBox="0 0 100 100" fill="none" xmlns="http://www.w3.org/2000/svg">
<circle opacity="0.2" cx="50" cy="50" r="50" fill="#58BFE4"/>
<path fill-rule="evenodd" clip-rule="evenodd" d="M56.8378 51.5689H69.7879V67.4539H32.7861V51.5689H45.7465V49.6334H31V67.1029C31 69.2866 33.0263 69.2866 33.0263 69.2866H69.5C69.5 69.2866 71.5263 69.2866 71.5263 67.1029V49.6334H56.8378V51.5689ZM69.6842 39.8068H32.8421V47.668H31V40.0747C31 37.8414 33.0263 37.8415 33.0263 37.8415H69.5C69.5 37.8415 71.5263 37.8414 71.5263 40.0747V47.668H69.6842V39.8068ZM55.0477 33.87H47.5992V37.8415H45.7368V34.4021C45.7368 31.9455 47.8624 31.9455 47.8624 31.9455H54.6639C54.6639 31.9455 56.7895 31.9455 56.7895 34.4021V37.8415H55.0477V33.87ZM47.5789 51.5803C47.5789 52.6759 48.3957 53.564 49.4384 53.564H53.0879C54.1148 53.564 54.9474 52.6927 54.9474 51.5803V47.6865C54.9474 46.5909 54.1306 45.7027 53.0879 45.7027H49.4384C48.4115 45.7027 47.5789 46.5741 47.5789 47.6865V51.5803ZM49.421 47.668V51.5987H53.1053V47.668H49.421Z" fill="#58BFE4"/>
</svg>
