<svg width="648" height="505" viewBox="0 0 648 505" fill="none" xmlns="http://www.w3.org/2000/svg">
<path d="M190.608 502.867C219.843 502.867 243.543 501.147 243.543 499.026C243.543 496.905 219.843 495.186 190.608 495.186C161.373 495.186 137.673 496.905 137.673 499.026C137.673 501.147 161.373 502.867 190.608 502.867Z" fill="#CCDDE5"/>
<path d="M377.16 505C406.396 505 430.095 503.281 430.095 501.16C430.095 499.039 406.396 497.319 377.16 497.319C347.925 497.319 324.226 499.039 324.226 501.16C324.226 503.281 347.925 505 377.16 505Z" fill="#CCDDE5"/>
<path d="M557.737 505C586.972 505 610.671 503.281 610.671 501.16C610.671 499.039 586.972 497.319 557.737 497.319C528.501 497.319 504.802 499.039 504.802 501.16C504.802 503.281 528.501 505 557.737 505Z" fill="#CCDDE5"/>
<path d="M174.386 428.193L176.521 430.754C176.521 430.754 171.398 435.234 171.611 435.661C171.825 436.087 180.576 431.82 181.003 431.18C181.43 430.54 177.801 426.273 177.801 426.273L174.386 428.193Z" fill="#4AA2FF"/>
<path d="M167.983 287.808H162.646V499.026H167.983V287.808Z" fill="#FEAC00"/>
<path d="M214.514 287.808H209.178V499.026H214.514V287.808Z" fill="#FEAC00"/>
<path d="M210.885 479.398H166.488V483.665H210.885V479.398Z" fill="#FEAC00"/>
<path d="M210.885 456.996H166.488V461.263H210.885V456.996Z" fill="#FEAC00"/>
<path d="M210.885 435.447H166.488V439.714H210.885V435.447Z" fill="#FEAC00"/>
<path d="M210.885 413.472H166.488V417.739H210.885V413.472Z" fill="#FEAC00"/>
<path d="M210.885 391.283H166.488V395.55H210.885V391.283Z" fill="#FEAC00"/>
<path d="M210.885 369.308H166.488V373.575H210.885V369.308Z" fill="#FEAC00"/>
<path d="M210.885 347.333H166.488V351.6H210.885V347.333Z" fill="#FEAC00"/>
<path d="M210.885 325.144H166.488V329.411H210.885V325.144Z" fill="#FEAC00"/>
<path d="M210.885 303.169H166.488V307.436H210.885V303.169Z" fill="#FEAC00"/>
<path d="M200.213 450.595L202.134 453.369C202.134 453.369 196.585 457.422 196.798 457.849C197.011 458.276 206.19 454.862 206.617 454.222C207.043 453.582 204.055 449.102 204.055 449.102L200.213 450.595Z" fill="#4AA2FF"/>
<path d="M221.771 363.974C221.771 363.974 221.344 380.402 210.459 389.15C199.573 397.897 195.091 401.738 195.091 401.738L205.123 450.595L200.427 452.089C200.427 452.089 181.216 425.846 180.576 404.725C179.936 383.603 198.079 359.707 198.079 359.707L221.771 363.974Z" fill="#363147"/>
<path d="M183.991 364.614C183.991 364.614 149.84 374.215 145.998 387.656C142.156 401.098 156.67 424.353 173.746 431.394L179.082 426.7C179.082 426.7 163.073 402.804 162.433 392.99C162.433 392.99 202.988 395.55 208.324 372.082C213.66 348.613 183.991 364.614 183.991 364.614Z" fill="#424261"/>
<path d="M76.4141 155.53V172.811C83.2444 185.399 92.8495 197.347 106.724 207.801C157.951 246.204 222.839 281.194 234.792 345.413C251.44 435.447 404.482 468.09 480.255 408.352C505.015 388.937 523.372 374.215 538.953 363.334V155.53H76.4141Z" fill="#ECF3FA"/>
<path d="M528.921 112.432H86.4461C80.8964 112.432 76.4141 116.913 76.4141 122.46V161.93H538.953V122.46C538.953 116.913 534.471 112.432 528.921 112.432Z" fill="#1D4256"/>
<path d="M427.961 145.929C432.323 145.929 435.859 142.394 435.859 138.035C435.859 133.675 432.323 130.141 427.961 130.141C423.599 130.141 420.063 133.675 420.063 138.035C420.063 142.394 423.599 145.929 427.961 145.929Z" fill="#6B8BFA"/>
<path d="M464.887 145.929C469.249 145.929 472.784 142.394 472.784 138.035C472.784 133.675 469.249 130.141 464.887 130.141C460.525 130.141 456.989 133.675 456.989 138.035C456.989 142.394 460.525 145.929 464.887 145.929Z" fill="#59C54F"/>
<path d="M502.026 145.929C506.388 145.929 509.924 142.394 509.924 138.035C509.924 133.675 506.388 130.141 502.026 130.141C497.665 130.141 494.129 133.675 494.129 138.035C494.129 142.394 497.665 145.929 502.026 145.929Z" fill="#EC5B72"/>
<path d="M278.975 146.995H101.814C97.9721 146.995 94.9839 143.795 94.9839 140.168C94.9839 136.328 98.1856 133.341 101.814 133.341H278.975C282.817 133.341 285.805 136.541 285.805 140.168C286.019 143.795 282.817 146.995 278.975 146.995Z" fill="#ECF3FA"/>
<path d="M370.971 214.841V387.016C370.971 390.217 373.532 392.777 376.734 392.777H500.106C515.261 380.829 527.854 371.228 538.953 363.334V209.294H376.734C373.532 209.294 370.971 211.854 370.971 214.841Z" fill="#CCDDE5"/>
<path d="M551.76 379.762H389.54C386.339 379.762 383.777 377.202 383.777 374.002V201.827C383.777 198.627 386.339 196.066 389.54 196.066H551.76C554.962 196.066 557.523 198.627 557.523 201.827V374.002C557.523 377.202 554.962 379.762 551.76 379.762Z" fill="#FEDD56"/>
<path d="M277.481 212.068H127.001V224.869H277.481V212.068Z" fill="#CCDDE5"/>
<path d="M163.287 248.764H277.481V235.963H145.998C151.974 240.23 157.737 244.497 163.287 248.764Z" fill="#CCDDE5"/>
<path d="M375.026 330.478C375.026 330.478 353.255 341.572 351.974 363.548C350.693 385.523 386.552 374.215 390.394 359.707C394.236 345.199 385.699 327.278 375.026 330.478Z" fill="#57A1FF"/>
<path d="M557.097 495.613L557.951 498.813C557.951 498.813 551.334 500.733 551.334 501.373C551.334 502.013 561.153 501.586 561.793 501.16C562.433 500.733 560.939 495.399 560.939 495.399L557.097 495.613Z" fill="#4AA2FF"/>
<path d="M582.284 483.238L584.845 485.372C584.845 485.372 580.363 490.705 580.789 491.132C581.003 491.559 589.114 485.798 589.327 485.158C589.541 484.518 585.485 480.891 585.485 480.891L582.284 483.238Z" fill="#4AA2FF"/>
<path d="M582.07 393.844C582.07 393.844 585.912 409.845 577.374 421.153C568.836 432.46 565.635 437.154 565.635 437.154L587.406 481.958L583.137 484.518C583.137 484.518 557.951 463.61 552.187 443.555C546.424 423.5 558.164 395.55 558.164 395.55L582.07 393.844Z" fill="#363147"/>
<path d="M542.369 392.777C542.369 392.777 536.606 455.929 556.457 496.466H562.22C562.22 496.466 560.086 429.047 562.22 421.366C562.22 421.366 571.398 413.472 571.398 394.27C571.398 375.069 542.369 392.777 542.369 392.777Z" fill="#424261"/>
<path d="M532.764 388.937C532.764 388.937 519.317 394.697 500.106 379.762H528.281L532.764 388.937Z" fill="#00ACFF"/>
<path d="M561.365 261.352C561.365 261.352 559.231 250.685 558.377 250.258C557.523 249.831 557.523 260.499 557.523 260.499L561.365 261.352Z" fill="#FFD2B0"/>
<path d="M555.816 340.933C555.816 340.933 556.457 300.609 563.501 296.769C570.544 292.928 577.375 305.089 578.869 321.518C580.363 338.159 574.813 366.108 555.816 340.933Z" fill="#0092FF"/>
<path d="M557.524 300.609V260.499H561.793C561.793 260.499 572.466 283.967 572.466 303.169L557.524 300.609Z" fill="#0092FF"/>
<path d="M550.053 304.876C550.053 304.876 544.29 318.744 548.559 325.571C553.895 332.611 562.86 324.931 562.86 324.931L550.053 304.876Z" fill="#FFC183"/>
<path d="M566.062 299.329C566.062 299.329 581.217 306.796 568.197 325.358C557.524 340.719 545.144 318.957 550.054 305.089C554.963 291.435 566.062 299.329 566.062 299.329Z" fill="#424261"/>
<path d="M550.694 329.838C550.694 329.838 534.685 333.678 520.811 379.976C520.811 379.976 519.104 388.083 527.642 389.577C536.179 391.07 543.01 378.909 543.01 378.909C543.01 378.909 539.168 389.15 540.875 395.977C540.875 395.977 556.67 408.138 582.924 394.697C582.924 394.697 586.339 352.667 571.398 333.465C571.398 333.678 563.928 326.211 550.694 329.838Z" fill="#00ACFF"/>
<path d="M557.524 259.432C557.31 259.219 554.322 255.805 554.749 254.952C555.176 254.098 556.883 256.018 556.883 256.018C556.883 256.018 558.591 255.378 559.018 257.085C559.231 258.792 558.591 260.072 557.524 259.432Z" fill="#FFD2B0"/>
<path d="M201.281 229.989C201.281 229.989 199.146 219.322 198.292 218.895C197.438 218.468 197.438 229.136 197.438 229.136L201.281 229.989Z" fill="#CD7F44"/>
<path d="M195.73 309.783C195.73 309.783 196.371 269.459 203.415 265.619C210.458 261.779 217.289 273.94 218.783 290.368C220.277 306.796 214.941 334.745 195.73 309.783Z" fill="#C53642"/>
<path d="M197.438 269.246V229.136H201.707C201.707 229.136 212.379 252.605 212.379 271.806L197.438 269.246Z" fill="#C53642"/>
<path d="M197.439 228.283C197.225 228.069 194.237 224.656 194.664 223.802C195.091 222.949 196.798 224.869 196.798 224.869C196.798 224.869 198.506 224.229 198.933 225.936C199.146 227.429 198.719 228.923 197.439 228.283Z" fill="#CD7F44"/>
<path d="M385.057 495.613L384.204 498.813C384.204 498.813 390.821 500.733 390.821 501.373C390.821 502.013 381.002 501.586 380.362 501.16C379.721 500.733 381.215 495.399 381.215 495.399L385.057 495.613Z" fill="#4AA2FF"/>
<path d="M359.871 483.238L357.31 485.372C357.31 485.372 361.792 490.705 361.365 491.132C361.152 491.559 353.041 485.798 352.827 485.158C352.614 484.518 356.67 480.891 356.67 480.891L359.871 483.238Z" fill="#4AA2FF"/>
<path d="M360.085 393.844C360.085 393.844 356.243 409.845 364.781 421.153C373.318 432.46 376.52 437.154 376.52 437.154L354.749 481.958L359.017 484.518C359.017 484.518 384.204 463.61 389.967 443.555C395.73 423.5 384.204 395.551 384.204 395.551L360.085 393.844Z" fill="#363147"/>
<path d="M399.786 392.777C399.786 392.777 405.549 455.929 385.698 496.466H379.935C379.935 496.466 382.07 429.047 379.935 421.366C379.935 421.366 370.757 413.472 370.757 394.27C370.757 375.069 399.786 392.777 399.786 392.777Z" fill="#424261"/>
<path d="M409.391 388.937C409.391 388.937 422.838 394.697 442.048 379.763H414.086L409.391 388.937Z" fill="#00ACFF"/>
<path d="M392.102 304.876C392.102 304.876 397.865 318.744 393.596 325.571C388.26 332.612 379.295 324.931 379.295 324.931L392.102 304.876Z" fill="#FFC183"/>
<path d="M376.093 299.329C376.093 299.329 360.938 306.796 373.959 325.358C384.631 340.719 397.011 318.957 392.102 305.089C387.192 291.221 376.093 299.329 376.093 299.329Z" fill="#CA3651"/>
<path d="M391.461 329.838C391.461 329.838 407.47 333.679 421.344 379.976C421.344 379.976 423.051 388.083 414.513 389.577C405.976 391.07 399.145 378.909 399.145 378.909C399.145 378.909 402.987 389.15 401.28 395.977C401.28 395.977 385.485 408.138 359.231 394.697C359.231 394.697 355.816 352.667 370.757 333.465C370.757 333.679 378.227 326.211 391.461 329.838Z" fill="#00ACFF"/>
<path d="M376.093 299.329C376.093 299.329 365.421 301.676 362.86 315.117C360.298 328.558 370.33 331.118 363.287 338.159C356.243 345.199 345.144 346.693 346.851 358.427C348.559 370.162 340.875 370.162 343.649 378.696C346.424 387.23 367.129 397.897 376.093 382.536C385.058 367.175 376.52 357.574 382.497 348.826C388.473 339.866 391.462 336.665 390.394 329.198C389.327 321.731 395.09 313.623 392.529 307.436C389.967 301.676 381.856 297.409 376.093 299.329Z" fill="#DD425E"/>
<path d="M160.726 321.304C160.726 321.304 161.366 311.916 162.433 311.49C163.5 311.063 162.86 318.53 162.86 318.53C162.86 318.53 165.848 315.97 166.062 317.037C166.275 318.104 164.995 319.384 164.995 319.384C164.995 319.384 165.848 320.664 165.421 321.944C165.208 323.651 160.726 321.304 160.726 321.304Z" fill="#FFD2B0"/>
<path d="M162.86 356.507C161.793 355.867 155.389 343.706 160.298 320.664L166.061 321.304C166.061 321.304 174.172 338.799 172.892 349.466C171.398 359.921 166.915 358.854 162.86 356.507Z" fill="#C53642"/>
<path d="M258.519 331.377L108.972 314.696L107.552 327.418L257.099 344.099L258.519 331.377Z" fill="#C2CFD6"/>
<path d="M253.819 310.822L106.589 341.898L109.235 354.422L256.465 323.347L253.819 310.822Z" fill="#CCDDE5"/>
<path d="M189.967 273.513C189.967 273.513 184.204 287.381 188.473 294.208C193.809 301.249 202.774 293.568 202.774 293.568L189.967 273.513Z" fill="#CD7F44"/>
<path d="M205.976 267.966C205.976 267.966 221.131 275.433 208.11 293.995C197.438 309.356 185.058 287.594 189.967 273.727C194.877 259.859 205.976 267.966 205.976 267.966Z" fill="#424261"/>
<path d="M190.608 298.689C190.608 298.689 174.599 302.529 160.725 348.826C160.725 348.826 159.018 356.934 167.556 358.427C176.093 360.134 182.924 347.76 182.924 347.76C182.924 347.76 179.082 358 180.789 364.828C180.789 364.828 196.584 376.989 222.838 363.548C222.838 363.548 226.253 321.517 211.312 302.316C211.526 302.316 204.055 294.848 190.608 298.689Z" fill="#DD425E"/>
<path d="M210.886 273.513C210.886 273.513 210.885 264.339 204.055 261.139C197.225 257.938 188.047 259.432 188.687 264.766C189.541 270.099 203.842 277.78 210.886 273.513Z" fill="#424261"/>
<path d="M52.2945 109.659C59.9569 109.659 66.1685 103.45 66.1685 95.791C66.1685 88.132 59.9569 81.9231 52.2945 81.9231C44.632 81.9231 38.4204 88.132 38.4204 95.791C38.4204 103.45 44.632 109.659 52.2945 109.659Z" fill="#9FC7FA"/>
<path d="M255.069 443.555C262.731 443.555 268.943 437.346 268.943 429.687C268.943 422.028 262.731 415.819 255.069 415.819C247.406 415.819 241.195 422.028 241.195 429.687C241.195 437.346 247.406 443.555 255.069 443.555Z" fill="#9FC7FA"/>
<path d="M41.6223 141.662C44.5694 141.662 46.9585 139.274 46.9585 136.328C46.9585 133.382 44.5694 130.994 41.6223 130.994C38.6752 130.994 36.2861 133.382 36.2861 136.328C36.2861 139.274 38.6752 141.662 41.6223 141.662Z" fill="#9FC7FA"/>
<path d="M234.791 401.951C237.738 401.951 240.127 399.563 240.127 396.617C240.127 393.671 237.738 391.283 234.791 391.283C231.844 391.283 229.455 393.671 229.455 396.617C229.455 399.563 231.844 401.951 234.791 401.951Z" fill="#9FC7FA"/>
<path d="M602.988 359.281C605.935 359.281 608.324 356.893 608.324 353.947C608.324 351.001 605.935 348.613 602.988 348.613C600.04 348.613 597.651 351.001 597.651 353.947C597.651 356.893 600.04 359.281 602.988 359.281Z" fill="#9FC7FA"/>
<path d="M580.149 183.479C581.681 183.479 582.924 182.237 582.924 180.705C582.924 179.173 581.681 177.932 580.149 177.932C578.616 177.932 577.374 179.173 577.374 180.705C577.374 182.237 578.616 183.479 580.149 183.479Z" fill="#13FFFF"/>
<path d="M570.97 234.683C572.503 234.683 573.745 233.441 573.745 231.909C573.745 230.378 572.503 229.136 570.97 229.136C569.438 229.136 568.195 230.378 568.195 231.909C568.195 233.441 569.438 234.683 570.97 234.683Z" fill="#13FFFF"/>
<path d="M611.525 282.687C614.826 282.687 617.502 280.013 617.502 276.713C617.502 273.414 614.826 270.74 611.525 270.74C608.225 270.74 605.549 273.414 605.549 276.713C605.549 280.013 608.225 282.687 611.525 282.687Z" fill="#FF6AFF"/>
<path d="M91.7822 99.2045C95.0829 99.2045 97.7587 96.53 97.7587 93.2307C97.7587 89.9314 95.0829 87.2568 91.7822 87.2568C88.4814 87.2568 85.8057 89.9314 85.8057 93.2307C85.8057 96.53 88.4814 99.2045 91.7822 99.2045Z" fill="#FF6AFF"/>
</svg>
