<svg width="100" height="100" viewBox="0 0 100 100" fill="none" xmlns="http://www.w3.org/2000/svg">
<circle opacity="0.2" cx="50" cy="50" r="50" fill="#58BFE4"/>
<path d="M50.4463 52.402C45.2783 52.402 41.0742 47.9167 41.0742 42.4031C41.0742 36.8894 45.2783 32.4114 50.4463 32.4114C55.6143 32.4114 59.8184 36.8967 59.8184 42.4104C59.8184 47.924 55.6143 52.402 50.4463 52.402ZM50.4463 33.8992C46.0508 33.8992 42.4756 37.7136 42.4756 42.4031C42.4756 47.0926 46.0508 50.9142 50.4463 50.9142C54.8418 50.9142 58.417 47.0999 58.417 42.4104C58.417 37.7209 54.8418 33.8992 50.4463 33.8992Z" fill="#58BFE4"/>
<path fill-rule="evenodd" clip-rule="evenodd" d="M50.4463 52.9362C45.0022 52.9362 40.5742 48.2121 40.5742 42.4038C40.5742 36.5951 45.0027 31.8787 50.4463 31.8787C55.8904 31.8787 60.3184 36.6029 60.3184 42.4111C60.3184 48.2199 55.8899 52.9362 50.4463 52.9362ZM50.4463 34.4334C46.3269 34.4334 42.9756 38.0089 42.9756 42.4038C42.9756 46.7993 46.3275 50.3815 50.4463 50.3815C54.5657 50.3815 57.917 46.806 57.917 42.4111C57.917 38.0156 54.5651 34.4334 50.4463 34.4334ZM41.0742 42.4038C41.0742 47.9175 45.2783 52.4028 50.4463 52.4028C55.6143 52.4028 59.8184 47.9248 59.8184 42.4111C59.8184 36.8975 55.6143 32.4122 50.4463 32.4122C45.2783 32.4122 41.0742 36.8902 41.0742 42.4038ZM42.4756 42.4038C42.4756 37.7143 46.0508 33.9 50.4463 33.9C54.8418 33.9 58.417 37.7216 58.417 42.4111C58.417 47.1006 54.8418 50.915 50.4463 50.915C46.0508 50.915 42.4756 47.0933 42.4756 42.4038Z" fill="#58BFE4"/>
<path d="M66.709 69.7532C66.3262 69.7532 66.0117 69.4177 66.0117 69.0093C66.0117 59.8564 59.0322 52.4101 50.4531 52.4101C41.874 52.4101 34.8945 59.8564 34.8945 69.0093C34.8945 69.4177 34.5801 69.7532 34.1973 69.7532C33.8145 69.7532 33.5 69.4177 33.5 69.0093C33.5 64.174 35.2637 59.6303 38.4697 56.2171C41.6758 52.8039 45.9346 50.915 50.46 50.915C54.9854 50.915 59.251 52.7966 62.4502 56.2171C65.6494 59.6376 67.4199 64.1813 67.4199 69.0093C67.4062 69.4177 67.0918 69.7532 66.709 69.7532Z" fill="#58BFE4"/>
<path fill-rule="evenodd" clip-rule="evenodd" d="M67.9199 69.0187L67.9196 69.0283C67.8967 69.7126 67.3713 70.2866 66.709 70.2866C66.05 70.2866 65.5117 69.7122 65.5117 69.0092C65.5117 60.151 58.7561 52.9435 50.4531 52.9435C42.1502 52.9435 35.3945 60.151 35.3945 69.0092C35.3945 69.7122 34.8562 70.2866 34.1973 70.2866C33.5383 70.2866 33 69.7122 33 69.0092C33 64.0325 34.8163 59.3529 38.1166 55.8395C41.4158 52.3271 45.8014 50.3815 50.46 50.3815C55.1178 50.3815 59.5108 52.3192 62.8041 55.8403C66.0964 59.3602 67.9199 64.0391 67.9199 69.0092V69.0187ZM66.0117 69.0092C66.0117 69.4176 66.3262 69.7531 66.709 69.7531C67.0918 69.7531 67.4062 69.4176 67.4199 69.0092C67.4199 64.1812 65.6494 59.6376 62.4502 56.2171C59.251 52.7966 54.9854 50.915 50.46 50.915C45.9346 50.915 41.6758 52.8039 38.4697 56.2171C35.2637 59.6303 33.5 64.1739 33.5 69.0092C33.5 69.4176 33.8145 69.7531 34.1973 69.7531C34.5801 69.7531 34.8945 69.4176 34.8945 69.0092C34.8945 59.8563 41.874 52.4101 50.4531 52.4101C59.0322 52.4101 66.0117 59.8563 66.0117 69.0092Z" fill="#58BFE4"/>
</svg>
