<svg width="114" height="114" viewBox="0 0 114 114" fill="none" xmlns="http://www.w3.org/2000/svg">
<circle opacity="0.2" cx="57.0114" cy="56.7917" r="56.6696" fill="#88AFDD"/>
<path d="M58.1545 59.5141C52.2971 59.5141 47.5322 54.4305 47.5322 48.1814C47.5322 41.9323 52.2971 36.8569 58.1545 36.8569C64.0118 36.8569 68.7767 41.9405 68.7767 48.1897C68.7767 54.4388 64.0118 59.5141 58.1545 59.5141ZM58.1545 38.5432C53.1726 38.5432 49.1205 42.8663 49.1205 48.1814C49.1205 53.4965 53.1726 57.8279 58.1545 57.8279C63.1363 57.8279 67.1884 53.5047 67.1884 48.1897C67.1884 42.8746 63.1363 38.5432 58.1545 38.5432Z" fill="#88AFDD"/>
<path fill-rule="evenodd" clip-rule="evenodd" d="M58.1557 60.1198C51.9854 60.1198 46.9668 54.7655 46.9668 48.1825C46.9668 41.5989 51.986 36.2534 58.1557 36.2534C64.326 36.2534 69.3447 41.6077 69.3447 48.1908C69.3447 54.7744 64.3255 60.1198 58.1557 60.1198ZM58.1557 39.1489C53.4869 39.1489 49.6885 43.2013 49.6885 48.1825C49.6885 53.1643 53.4875 57.2244 58.1557 57.2244C62.8246 57.2244 66.623 53.1719 66.623 48.1908C66.623 43.2089 62.824 39.1489 58.1557 39.1489ZM47.5335 48.1825C47.5335 54.4316 52.2984 59.5152 58.1557 59.5152C64.0131 59.5152 68.778 54.4399 68.778 48.1908C68.778 41.9416 64.0131 36.858 58.1557 36.858C52.2984 36.858 47.5335 41.9334 47.5335 48.1825ZM49.1218 48.1825C49.1218 42.8674 53.1739 38.5443 58.1557 38.5443C63.1376 38.5443 67.1897 42.8757 67.1897 48.1908C67.1897 53.5058 63.1376 57.829 58.1557 57.829C53.1739 57.829 49.1218 53.4976 49.1218 48.1825Z" fill="#88AFDD"/>
<path d="M76.5861 79.1802C76.1522 79.1802 75.7958 78.8 75.7958 78.3371C75.7958 67.9632 67.8853 59.5236 58.1618 59.5236C48.4383 59.5236 40.5278 67.9632 40.5278 78.3371C40.5278 78.8 40.1714 79.1802 39.7375 79.1802C39.3037 79.1802 38.9473 78.8 38.9473 78.3371C38.9473 72.8567 40.9462 67.707 44.5799 63.8385C48.2136 59.97 53.0405 57.8291 58.1696 57.8291C63.2986 57.8291 68.1332 59.9617 71.7592 63.8385C75.3852 67.7153 77.3918 72.865 77.3918 78.3371C77.3764 78.8 77.02 79.1802 76.5861 79.1802Z" fill="#88AFDD"/>
<path fill-rule="evenodd" clip-rule="evenodd" d="M77.9588 78.3479L77.9585 78.3587C77.9325 79.1343 77.337 79.7848 76.5864 79.7848C75.8395 79.7848 75.2294 79.1339 75.2294 78.3371C75.2294 68.2972 67.5726 60.1283 58.1621 60.1283C48.7516 60.1283 41.0948 68.2972 41.0948 78.3371C41.0948 79.1339 40.4847 79.7848 39.7378 79.7848C38.991 79.7848 38.3809 79.1339 38.3809 78.3371C38.3809 72.6965 40.4394 67.3927 44.1799 63.4106C47.9193 59.4297 52.8899 57.2246 58.1698 57.2246C63.449 57.2246 68.428 59.4208 72.1606 63.4115C75.892 67.401 77.9588 72.704 77.9588 78.3371V78.3479ZM75.7961 78.3371C75.7961 78.8 76.1525 79.1802 76.5864 79.1802C77.0202 79.1802 77.3766 78.8 77.3921 78.3371C77.3921 72.865 75.3855 67.7153 71.7595 63.8386C68.1335 59.9618 63.2989 57.8292 58.1698 57.8292C53.0408 57.8292 48.2139 59.9701 44.5802 63.8386C40.9465 67.707 38.9476 72.8567 38.9476 78.3371C38.9476 78.8 39.304 79.1802 39.7378 79.1802C40.1717 79.1802 40.5281 78.8 40.5281 78.3371C40.5281 67.9633 48.4386 59.5237 58.1621 59.5237C67.8856 59.5237 75.7961 67.9633 75.7961 78.3371Z" fill="#88AFDD"/>
</svg>
